<svg width="275" height="300" viewBox="0 0 275 300" fill="none" xmlns="http://www.w3.org/2000/svg">
<g clip-path="url(#clip0_356_532)">
<path d="M227.695 93.9027L189.386 73.7803V214.634H227.695V93.9027Z" fill="url(#paint0_linear_356_532)"/>
<path d="M41.6191 114.024L79.9277 93.9019V214.633H41.6191V114.024Z" fill="url(#paint1_linear_356_532)"/>
<path fill-rule="evenodd" clip-rule="evenodd" d="M137.39 0L189.38 26.8293V214.634H189.379V73.7805L151.071 93.9029V214.634H137.39V0Z" fill="url(#paint2_linear_356_532)"/>
<path fill-rule="evenodd" clip-rule="evenodd" d="M131.923 16.0962L79.9329 42.9256V93.9016L118.241 114.023V214.633H131.923V16.0962Z" fill="url(#paint3_linear_356_532)"/>
<path d="M178.444 83.358L183.917 80.4873V214.634H178.444V83.358Z" fill="url(#paint4_linear_356_532)"/>
<path d="M90.8723 106.169L85.4004 103.294V214.636H90.8723V106.169Z" fill="url(#paint5_linear_356_532)"/>
<path d="M167.495 90.0495L172.967 87.1943V214.633H167.495V90.0495Z" fill="url(#paint6_linear_356_532)"/>
<path d="M101.822 111.553L96.3491 108.66V214.636H101.822V111.553Z" fill="url(#paint7_linear_356_532)"/>
<path d="M156.547 95.4312L162.019 92.561V214.635H156.547V95.4312Z" fill="url(#paint8_linear_356_532)"/>
<path d="M112.77 118.242L107.298 115.368V214.636H112.77V118.242Z" fill="url(#paint9_linear_356_532)"/>
<path d="M64.8821 203.903L-3.52563 214.634H64.8821V203.903Z" fill="url(#paint10_linear_356_532)"/>
<path d="M271.477 214.634L203.069 203.903V214.634H271.477Z" fill="url(#paint11_linear_356_532)"/>
<path d="M75.8289 203.904L134.66 201.221L193.49 203.904V214.636H75.8289V203.904Z" fill="url(#paint12_linear_356_532)"/>
<path d="M14.4916 252.942C16.5073 252.942 18.485 252.606 19.3978 251.634V247.04H13.8451V243.005H25.5589V253.614C23.239 256.005 19.3217 257.35 14.1494 257.35C7.75999 257.35 3.88074 254.324 2.20732 249.991C1.59881 248.422 1.29456 246.591 1.29456 244.499V242.93C1.29456 236.879 3.84271 232.695 8.59669 230.902C10.118 230.341 11.8294 230.042 13.731 230.042C20.919 230.042 24.7983 233.18 25.5589 238.859H19.5499C19.0935 236.132 17.4581 234.451 13.9212 234.451C9.09111 234.451 7.49377 238.149 7.49377 242.893V244.499C7.49377 249.43 9.35733 252.942 14.4916 252.942ZM53.04 238.448C53.04 242.557 50.8722 244.574 47.7535 245.882L54.1809 256.715V256.976H47.6014L42.0487 247.264H37.1426V256.976H31.0195V230.416H42.0868C47.145 230.416 50.7581 231.91 52.2793 234.974C52.8118 235.982 53.04 237.14 53.04 238.448ZM46.9549 238.933C46.9549 236.281 45.1674 234.899 42.0868 234.899H37.1426V242.856H42.0868C45.0533 242.856 46.9549 241.511 46.9549 238.933ZM76.9826 251.522H66.2196L64.1659 256.976H57.6624L68.7297 230.416H74.4345L85.5398 256.976H79.0364L76.9826 251.522ZM67.893 247.077H75.3092L71.5821 237.14L67.893 247.077ZM114.261 256.976H108.138L96.1958 239.494V256.976H90.0726V230.416H96.1958L108.176 247.936V230.416H114.261V256.976ZM119.971 256.976V230.416H129.099C135.716 230.416 139.824 233.629 141.725 237.962C142.372 239.531 142.714 241.249 142.714 243.117V244.313C142.714 250.364 139.443 254.324 134.613 256.08C132.94 256.678 131.076 256.976 129.061 256.976H119.971ZM136.477 243.08C136.477 238.149 134.385 234.861 129.099 234.861H126.094V252.568H129.061C134.309 252.568 136.477 249.244 136.477 244.313V243.08ZM165.32 253.017C167.906 253.017 169.96 252.232 169.96 249.991C169.96 248.086 168.705 247.451 167.108 246.815C166.347 246.517 165.358 246.18 164.141 245.844C160.376 244.761 156.725 243.379 155.014 240.502C154.481 239.643 154.253 238.634 154.253 237.476C154.253 233.591 157.334 231.537 160.756 230.603C162.088 230.229 163.571 230.042 165.206 230.042C170.188 230.042 173.763 231.948 175.361 234.974C175.855 235.982 176.121 237.065 176.121 238.261H169.998C169.998 235.683 168.059 234.413 165.092 234.413C162.506 234.413 160.338 235.31 160.338 237.514C160.338 238.41 160.832 239.12 161.859 239.718C162.848 240.315 164.331 240.838 166.233 241.361C170.226 242.482 173.992 243.939 175.513 247.04C175.931 247.899 176.121 248.87 176.121 249.953C176.121 253.913 173.307 255.968 169.77 256.864C168.477 257.201 166.956 257.35 165.32 257.35C159.577 257.35 155.28 255.183 153.797 251.336C153.492 250.514 153.34 249.617 153.34 248.609H159.463C159.463 251.821 161.745 253.017 165.32 253.017ZM205.553 256.976H199.468V245.583H187.488V256.976H181.364V230.416H187.488V241.175H199.468V230.416H205.553V256.976ZM235.984 244.313C235.984 250.439 233.245 254.586 228.529 256.453C226.97 257.051 225.259 257.387 223.395 257.387C219.326 257.387 216.245 255.893 214.229 253.876C212.061 251.709 210.692 248.422 210.692 244.313V243.117C210.692 237.028 213.507 232.844 218.223 230.976C219.782 230.379 221.493 230.042 223.357 230.042C227.426 230.042 230.431 231.537 232.485 233.554C234.652 235.758 235.984 239.045 235.984 243.117V244.313ZM223.395 252.905C228.149 252.905 229.784 249.019 229.784 244.35V243.117C229.784 238.373 228.149 234.6 223.357 234.6C218.565 234.6 216.853 238.41 216.853 243.117V244.35C216.853 248.086 217.918 251.074 220.619 252.344C221.455 252.718 222.368 252.905 223.395 252.905ZM265.497 256.976H259.412V245.583H247.432V256.976H241.309V230.416H247.432V241.175H259.412V230.416H265.497V256.976ZM60.2814 284.994V294.333H54.158V267.772H65.758C71.0064 267.772 74.6574 269.79 76.1787 273.077C76.6731 274.16 76.9393 275.318 76.9393 276.551C76.9393 280.884 74.201 283.35 70.4739 284.396C69.1048 284.807 67.5455 284.994 65.758 284.994H60.2814ZM70.7401 276.588C70.7401 273.899 68.8766 272.218 65.758 272.218H60.2814V280.548H65.758C68.8005 280.548 70.7401 279.278 70.7401 276.588ZM96.5925 288.879H85.8294L83.7757 294.333H77.2723L88.3395 267.772H94.0443L105.15 294.333H98.6462L96.5925 288.879ZM87.5028 284.433H94.9191L91.1919 274.497L87.5028 284.433ZM115.806 289.925H128.813V294.333H109.683V267.772H115.806V289.925ZM152.378 288.879H141.615L139.561 294.333H133.057L144.125 267.772H149.83L160.935 294.333H154.431L152.378 288.879ZM143.288 284.433H150.704L146.977 274.497L143.288 284.433ZM176.774 290.224C180.577 290.224 182.402 288.692 182.631 285.479H188.792C188.411 289.962 185.673 292.764 181.68 294.034C180.235 294.482 178.599 294.706 176.774 294.706C170.498 294.706 166.923 291.568 165.364 287.272C164.794 285.703 164.527 283.91 164.527 281.93V280.212C164.527 274.31 167.152 270.126 171.753 268.295C173.275 267.698 174.986 267.399 176.85 267.399C184.076 267.399 188.107 271.022 188.83 276.775H182.669C182.44 273.563 180.691 271.882 176.85 271.882C172.02 271.882 170.689 275.393 170.689 280.175V281.93C170.689 286.488 171.792 290.224 176.774 290.224ZM211.83 282.827H200.078V289.925H213.883V294.333H193.955V267.772H213.845V272.218H200.078V278.531H211.83V282.827Z" fill="url(#paint13_linear_356_532)"/>
</g>
<defs>
<linearGradient id="paint0_linear_356_532" x1="200.059" y1="86.5242" x2="228.658" y2="87.8191" gradientUnits="userSpaceOnUse">
<stop stop-color="#EEBA34"/>
<stop offset="0.197917" stop-color="#FFD465"/>
<stop offset="0.338542" stop-color="#FFC42C"/>
<stop offset="0.46875" stop-color="#FFD465"/>
<stop offset="0.723958" stop-color="#EEBA34"/>
<stop offset="0.958333" stop-color="#F8B638"/>
</linearGradient>
<linearGradient id="paint1_linear_356_532" x1="52.2922" y1="104.825" x2="80.8699" y2="106.335" gradientUnits="userSpaceOnUse">
<stop stop-color="#EEBA34"/>
<stop offset="0.197917" stop-color="#FFD465"/>
<stop offset="0.338542" stop-color="#FFC42C"/>
<stop offset="0.46875" stop-color="#FFD465"/>
<stop offset="0.723958" stop-color="#EEBA34"/>
<stop offset="0.958333" stop-color="#F8B638"/>
</linearGradient>
<linearGradient id="paint2_linear_356_532" x1="151.875" y1="19.4193" x2="190.704" y2="20.9851" gradientUnits="userSpaceOnUse">
<stop stop-color="#EEBA34"/>
<stop offset="0.197917" stop-color="#FFD465"/>
<stop offset="0.338542" stop-color="#FFC42C"/>
<stop offset="0.46875" stop-color="#FFD465"/>
<stop offset="0.723958" stop-color="#EEBA34"/>
<stop offset="0.958333" stop-color="#F8B638"/>
</linearGradient>
<linearGradient id="paint3_linear_356_532" x1="94.4177" y1="34.059" x2="133.236" y2="35.7513" gradientUnits="userSpaceOnUse">
<stop stop-color="#EEBA34"/>
<stop offset="0.197917" stop-color="#FFD465"/>
<stop offset="0.338542" stop-color="#FFC42C"/>
<stop offset="0.46875" stop-color="#FFD465"/>
<stop offset="0.723958" stop-color="#EEBA34"/>
<stop offset="0.958333" stop-color="#F8B638"/>
</linearGradient>
<linearGradient id="paint4_linear_356_532" x1="179.969" y1="92.6244" x2="184.063" y2="92.6522" gradientUnits="userSpaceOnUse">
<stop stop-color="#EEBA34"/>
<stop offset="0.197917" stop-color="#FFD465"/>
<stop offset="0.338542" stop-color="#FFC42C"/>
<stop offset="0.46875" stop-color="#FFD465"/>
<stop offset="0.723958" stop-color="#EEBA34"/>
<stop offset="0.958333" stop-color="#F8B638"/>
</linearGradient>
<linearGradient id="paint5_linear_356_532" x1="86.9249" y1="113.368" x2="91.018" y2="113.401" gradientUnits="userSpaceOnUse">
<stop stop-color="#EEBA34"/>
<stop offset="0.197917" stop-color="#FFD465"/>
<stop offset="0.338542" stop-color="#FFC42C"/>
<stop offset="0.46875" stop-color="#FFD465"/>
<stop offset="0.723958" stop-color="#EEBA34"/>
<stop offset="0.958333" stop-color="#F8B638"/>
</linearGradient>
<linearGradient id="paint6_linear_356_532" x1="169.02" y1="98.7245" x2="173.113" y2="98.7538" gradientUnits="userSpaceOnUse">
<stop stop-color="#EEBA34"/>
<stop offset="0.197917" stop-color="#FFD465"/>
<stop offset="0.338542" stop-color="#FFC42C"/>
<stop offset="0.46875" stop-color="#FFD465"/>
<stop offset="0.723958" stop-color="#EEBA34"/>
<stop offset="0.958333" stop-color="#F8B638"/>
</linearGradient>
<linearGradient id="paint7_linear_356_532" x1="97.8738" y1="118.248" x2="101.967" y2="118.284" gradientUnits="userSpaceOnUse">
<stop stop-color="#EEBA34"/>
<stop offset="0.197917" stop-color="#FFD465"/>
<stop offset="0.338542" stop-color="#FFC42C"/>
<stop offset="0.46875" stop-color="#FFD465"/>
<stop offset="0.723958" stop-color="#EEBA34"/>
<stop offset="0.958333" stop-color="#F8B638"/>
</linearGradient>
<linearGradient id="paint8_linear_356_532" x1="158.071" y1="103.606" x2="162.165" y2="103.636" gradientUnits="userSpaceOnUse">
<stop stop-color="#EEBA34"/>
<stop offset="0.197917" stop-color="#FFD465"/>
<stop offset="0.338542" stop-color="#FFC42C"/>
<stop offset="0.46875" stop-color="#FFD465"/>
<stop offset="0.723958" stop-color="#EEBA34"/>
<stop offset="0.958333" stop-color="#F8B638"/>
</linearGradient>
<linearGradient id="paint9_linear_356_532" x1="108.822" y1="124.349" x2="112.916" y2="124.387" gradientUnits="userSpaceOnUse">
<stop stop-color="#EEBA34"/>
<stop offset="0.197917" stop-color="#FFD465"/>
<stop offset="0.338542" stop-color="#FFC42C"/>
<stop offset="0.46875" stop-color="#FFD465"/>
<stop offset="0.723958" stop-color="#EEBA34"/>
<stop offset="0.958333" stop-color="#F8B638"/>
</linearGradient>
<linearGradient id="paint10_linear_356_532" x1="15.5332" y1="204.874" x2="39.6025" y2="230.416" gradientUnits="userSpaceOnUse">
<stop stop-color="#EEBA34"/>
<stop offset="0.197917" stop-color="#FFD465"/>
<stop offset="0.338542" stop-color="#FFC42C"/>
<stop offset="0.46875" stop-color="#FFD465"/>
<stop offset="0.723958" stop-color="#EEBA34"/>
<stop offset="0.958333" stop-color="#F8B638"/>
</linearGradient>
<linearGradient id="paint11_linear_356_532" x1="222.128" y1="204.874" x2="246.197" y2="230.416" gradientUnits="userSpaceOnUse">
<stop stop-color="#EEBA34"/>
<stop offset="0.197917" stop-color="#FFD465"/>
<stop offset="0.338542" stop-color="#FFC42C"/>
<stop offset="0.46875" stop-color="#FFD465"/>
<stop offset="0.723958" stop-color="#EEBA34"/>
<stop offset="0.958333" stop-color="#F8B638"/>
</linearGradient>
<linearGradient id="paint12_linear_356_532" x1="108.61" y1="202.435" x2="136.712" y2="243.469" gradientUnits="userSpaceOnUse">
<stop stop-color="#EEBA34"/>
<stop offset="0.197917" stop-color="#FFD465"/>
<stop offset="0.338542" stop-color="#FFC42C"/>
<stop offset="0.46875" stop-color="#FFD465"/>
<stop offset="0.723958" stop-color="#EEBA34"/>
<stop offset="0.958333" stop-color="#F8B638"/>
</linearGradient>
<linearGradient id="paint13_linear_356_532" x1="74.9034" y1="235.893" x2="210.03" y2="327.804" gradientUnits="userSpaceOnUse">
<stop stop-color="#EEBA34"/>
<stop offset="0.197917" stop-color="#FFD465"/>
<stop offset="0.338542" stop-color="#FFC42C"/>
<stop offset="0.46875" stop-color="#FFD465"/>
<stop offset="0.723958" stop-color="#EEBA34"/>
<stop offset="0.958333" stop-color="#F8B638"/>
</linearGradient>
<clipPath id="clip0_356_532">
<rect width="275" height="300" fill="white"/>
</clipPath>
</defs>
</svg>
