<svg width="78" height="85" viewBox="0 0 78 85" fill="none" xmlns="http://www.w3.org/2000/svg">
<g clip-path="url(#clip0_464_98)">
<path d="M64.5825 26.6056L53.7168 20.9043V60.8129H64.5825V26.6056Z" fill="url(#paint0_linear_464_98)"/>
<path d="M11.8047 32.3067L22.6704 26.6055V60.8128H11.8047V32.3067Z" fill="url(#paint1_linear_464_98)"/>
<path fill-rule="evenodd" clip-rule="evenodd" d="M38.9688 0L53.7151 7.60164V60.8131H53.7149V20.9045L42.8492 26.6058V60.8131H38.9688V0Z" fill="url(#paint2_linear_464_98)"/>
<path fill-rule="evenodd" clip-rule="evenodd" d="M37.4182 4.56055L22.6719 12.1622V26.6054L33.5374 32.3066V60.8127H37.4182V4.56055Z" fill="url(#paint3_linear_464_98)"/>
<path d="M50.6133 23.6181L52.1655 22.8047V60.8129H50.6133V23.6181Z" fill="url(#paint4_linear_464_98)"/>
<path d="M25.7747 30.0811L24.2227 29.2666V60.8135H25.7747V30.0811Z" fill="url(#paint5_linear_464_98)"/>
<path d="M47.5078 25.514L49.0598 24.7051V60.8128H47.5078V25.514Z" fill="url(#paint6_linear_464_98)"/>
<path d="M28.8803 31.6068L27.3281 30.7871V60.8136H28.8803V31.6068Z" fill="url(#paint7_linear_464_98)"/>
<path d="M44.4023 27.0388L45.9545 26.2256V60.8131H44.4023V27.0388Z" fill="url(#paint8_linear_464_98)"/>
<path d="M31.9856 33.502L30.4336 32.6875V60.8135H31.9856V33.502Z" fill="url(#paint9_linear_464_98)"/>
<path d="M18.4029 57.7725L-1 60.8131H18.4029V57.7725Z" fill="url(#paint10_linear_464_98)"/>
<path d="M77.0007 60.8131L57.5977 57.7725V60.8131H77.0007Z" fill="url(#paint11_linear_464_98)"/>
<path d="M21.5078 57.7728L38.1943 57.0127L54.8809 57.7728V60.8134H21.5078V57.7728Z" fill="url(#paint12_linear_464_98)"/>
<path d="M4.11036 71.6669C4.68208 71.6669 5.24302 71.5716 5.50191 71.2964V69.9946H3.92698V68.8515H7.24945V71.8574C6.59142 72.5348 5.48034 72.9158 4.01328 72.9158C2.20102 72.9158 1.10072 72.0585 0.626081 70.8307C0.453485 70.3862 0.367188 69.8676 0.367188 69.2748V68.8303C0.367188 67.1156 1.08994 65.9302 2.43834 65.4221C2.86983 65.2634 3.35525 65.1787 3.89462 65.1787C5.9334 65.1787 7.0337 66.0678 7.24945 67.6766H5.54506C5.41562 66.9039 4.95177 66.4277 3.94855 66.4277C2.57857 66.4277 2.12551 67.4755 2.12551 68.8197V69.2748C2.12551 70.672 2.65408 71.6669 4.11036 71.6669ZM15.0441 67.5602C15.0441 68.7244 14.4292 69.296 13.5446 69.6665L15.3677 72.7359V72.81H13.5015L11.9266 70.0581H10.535V72.81H8.79826V65.2846H11.9373C13.372 65.2846 14.3968 65.7079 14.8283 66.5758C14.9793 66.8616 15.0441 67.1897 15.0441 67.5602ZM13.3181 67.6978C13.3181 66.9463 12.8111 66.5547 11.9373 66.5547H10.535V68.8091H11.9373C12.7788 68.8091 13.3181 68.4281 13.3181 67.6978ZM21.8351 71.2647H18.7823L18.1998 72.81H16.3552L19.4943 65.2846H21.1123L24.2622 72.81H22.4176L21.8351 71.2647ZM19.2569 70.0051H21.3604L20.3033 67.1897L19.2569 70.0051ZM32.4086 72.81H30.6718L27.2846 67.8565V72.81H25.5479V65.2846H27.2846L30.6826 70.2486V65.2846H32.4086V72.81ZM34.0281 72.81V65.2846H36.6171C38.4941 65.2846 39.6591 66.1948 40.1984 67.4226C40.3818 67.8671 40.4789 68.354 40.4789 68.8832V69.2219C40.4789 70.9366 39.5512 72.0585 38.1812 72.556C37.7066 72.7253 37.178 72.81 36.6063 72.81H34.0281ZM38.7098 68.8726C38.7098 67.4755 38.1165 66.5441 36.6171 66.5441H35.7649V71.561H36.6063C38.0949 71.561 38.7098 70.619 38.7098 69.2219V68.8726ZM46.8908 71.6881C47.6244 71.6881 48.2069 71.4658 48.2069 70.8307C48.2069 70.2909 47.8509 70.111 47.3978 69.9311C47.1821 69.8464 46.9016 69.7511 46.5564 69.6559C45.4885 69.3489 44.4529 68.9573 43.9675 68.1423C43.8165 67.8989 43.7518 67.6131 43.7518 67.285C43.7518 66.1842 44.6255 65.6021 45.5964 65.3375C45.9739 65.2316 46.3946 65.1787 46.8585 65.1787C48.2716 65.1787 49.2856 65.7185 49.7387 66.5758C49.8789 66.8616 49.9544 67.1686 49.9544 67.5073H48.2177C48.2177 66.7769 47.6675 66.4171 46.8261 66.4171C46.0926 66.4171 45.4777 66.6711 45.4777 67.2956C45.4777 67.5496 45.6179 67.7507 45.9092 67.92C46.1897 68.0894 46.6104 68.2376 47.1497 68.3858C48.2824 68.7033 49.3503 69.1161 49.7818 69.9946C49.9005 70.238 49.9544 70.5132 49.9544 70.8201C49.9544 71.9421 49.1562 72.5242 48.1529 72.7782C47.7862 72.8735 47.3547 72.9158 46.8908 72.9158C45.262 72.9158 44.043 72.3019 43.6223 71.2118C43.536 70.9789 43.4929 70.7249 43.4929 70.4391H45.2296C45.2296 71.3494 45.8768 71.6881 46.8908 71.6881ZM58.3022 72.81H56.5763V69.5818H53.1783V72.81H51.4416V65.2846H53.1783V68.3328H56.5763V65.2846H58.3022V72.81ZM66.9335 69.2219C66.9335 70.9577 66.1568 72.1326 64.8192 72.6618C64.377 72.8312 63.8915 72.9264 63.3629 72.9264C62.2087 72.9264 61.3349 72.503 60.7632 71.9315C60.1484 71.3176 59.76 70.3862 59.76 69.2219V68.8832C59.76 67.158 60.5583 65.9725 61.8959 65.4433C62.3382 65.274 62.8236 65.1787 63.3522 65.1787C64.5064 65.1787 65.3586 65.6021 65.9411 66.1736C66.556 66.7981 66.9335 67.7295 66.9335 68.8832V69.2219ZM63.3629 71.6563C64.7114 71.6563 65.1752 70.5555 65.1752 69.2325V68.8832C65.1752 67.539 64.7114 66.47 63.3522 66.47C61.993 66.47 61.5075 67.5496 61.5075 68.8832V69.2325C61.5075 70.2909 61.8096 71.1377 62.5755 71.4975C62.8128 71.6034 63.0717 71.6563 63.3629 71.6563ZM75.3047 72.81H73.5788V69.5818H70.1808V72.81H68.4441V65.2846H70.1808V68.3328H73.5788V65.2846H75.3047V72.81ZM17.098 80.7482V83.3943H15.3612V75.8688H18.6514C20.14 75.8688 21.1756 76.4404 21.6071 77.3718C21.7473 77.6788 21.8228 78.0069 21.8228 78.3562C21.8228 79.5839 21.0461 80.2825 19.989 80.5789C19.6006 80.6953 19.1584 80.7482 18.6514 80.7482H17.098ZM20.0645 78.3667C20.0645 77.6047 19.5359 77.1284 18.6514 77.1284H17.098V79.4887H18.6514C19.5143 79.4887 20.0645 79.1288 20.0645 78.3667ZM27.3971 81.849H24.3444L23.7618 83.3943H21.9172L25.0563 75.8688H26.6744L29.8243 83.3943H27.9797L27.3971 81.849ZM24.819 80.5894H26.9225L25.8654 77.774L24.819 80.5894ZM32.8469 82.1453H36.5361V83.3943H31.1101V75.8688H32.8469V82.1453ZM43.2199 81.849H40.1671L39.5846 83.3943H37.7399L40.879 75.8688H42.4971L45.647 83.3943H43.8024L43.2199 81.849ZM40.6417 80.5894H42.7452L41.6881 77.774L40.6417 80.5894ZM50.1395 82.23C51.2182 82.23 51.736 81.796 51.8007 80.8858H53.5482C53.4404 82.1559 52.6637 82.9497 51.531 83.3096C51.1211 83.4366 50.6572 83.5001 50.1395 83.5001C48.3596 83.5001 47.3456 82.611 46.9033 81.3938C46.7415 80.9493 46.666 80.4413 46.666 79.8803V79.3934C46.666 77.7211 47.4103 76.5357 48.7155 76.017C49.147 75.8477 49.6325 75.763 50.161 75.763C52.2106 75.763 53.3541 76.7897 53.559 78.4197H51.8115C51.7468 77.5094 51.2505 77.0331 50.161 77.0331C48.7911 77.0331 48.4135 78.028 48.4135 79.3828V79.8803C48.4135 81.1716 48.7263 82.23 50.1395 82.23ZM60.0826 80.1343H56.7494V82.1453H60.6651V83.3943H55.0126V75.8688H60.6544V77.1284H56.7494V78.9171H60.0826V80.1343Z" fill="url(#paint13_linear_464_98)"/>
</g>
<defs>
<linearGradient id="paint0_linear_464_98" x1="56.7441" y1="24.5151" x2="64.8557" y2="24.8827" gradientUnits="userSpaceOnUse">
<stop stop-color="#EEBA34"/>
<stop offset="0.197917" stop-color="#FFD465"/>
<stop offset="0.338542" stop-color="#FFC42C"/>
<stop offset="0.46875" stop-color="#FFD465"/>
<stop offset="0.723958" stop-color="#EEBA34"/>
<stop offset="0.958333" stop-color="#F8B638"/>
</linearGradient>
<linearGradient id="paint1_linear_464_98" x1="14.8319" y1="29.7004" x2="22.9376" y2="30.129" gradientUnits="userSpaceOnUse">
<stop stop-color="#EEBA34"/>
<stop offset="0.197917" stop-color="#FFD465"/>
<stop offset="0.338542" stop-color="#FFC42C"/>
<stop offset="0.46875" stop-color="#FFD465"/>
<stop offset="0.723958" stop-color="#EEBA34"/>
<stop offset="0.958333" stop-color="#F8B638"/>
</linearGradient>
<linearGradient id="paint2_linear_464_98" x1="43.0772" y1="5.50213" x2="54.0905" y2="5.94672" gradientUnits="userSpaceOnUse">
<stop stop-color="#EEBA34"/>
<stop offset="0.197917" stop-color="#FFD465"/>
<stop offset="0.338542" stop-color="#FFC42C"/>
<stop offset="0.46875" stop-color="#FFD465"/>
<stop offset="0.723958" stop-color="#EEBA34"/>
<stop offset="0.958333" stop-color="#F8B638"/>
</linearGradient>
<linearGradient id="paint3_linear_464_98" x1="26.7803" y1="9.65002" x2="37.7906" y2="10.1305" gradientUnits="userSpaceOnUse">
<stop stop-color="#EEBA34"/>
<stop offset="0.197917" stop-color="#FFD465"/>
<stop offset="0.338542" stop-color="#FFC42C"/>
<stop offset="0.46875" stop-color="#FFD465"/>
<stop offset="0.723958" stop-color="#EEBA34"/>
<stop offset="0.958333" stop-color="#F8B638"/>
</linearGradient>
<linearGradient id="paint4_linear_464_98" x1="51.0457" y1="26.2435" x2="52.2068" y2="26.2514" gradientUnits="userSpaceOnUse">
<stop stop-color="#EEBA34"/>
<stop offset="0.197917" stop-color="#FFD465"/>
<stop offset="0.338542" stop-color="#FFC42C"/>
<stop offset="0.46875" stop-color="#FFD465"/>
<stop offset="0.723958" stop-color="#EEBA34"/>
<stop offset="0.958333" stop-color="#F8B638"/>
</linearGradient>
<linearGradient id="paint5_linear_464_98" x1="24.6551" y1="32.1208" x2="25.816" y2="32.1303" gradientUnits="userSpaceOnUse">
<stop stop-color="#EEBA34"/>
<stop offset="0.197917" stop-color="#FFD465"/>
<stop offset="0.338542" stop-color="#FFC42C"/>
<stop offset="0.46875" stop-color="#FFD465"/>
<stop offset="0.723958" stop-color="#EEBA34"/>
<stop offset="0.958333" stop-color="#F8B638"/>
</linearGradient>
<linearGradient id="paint6_linear_464_98" x1="47.9402" y1="27.972" x2="49.1012" y2="27.9803" gradientUnits="userSpaceOnUse">
<stop stop-color="#EEBA34"/>
<stop offset="0.197917" stop-color="#FFD465"/>
<stop offset="0.338542" stop-color="#FFC42C"/>
<stop offset="0.46875" stop-color="#FFD465"/>
<stop offset="0.723958" stop-color="#EEBA34"/>
<stop offset="0.958333" stop-color="#F8B638"/>
</linearGradient>
<linearGradient id="paint7_linear_464_98" x1="27.7606" y1="33.5038" x2="28.9216" y2="33.5138" gradientUnits="userSpaceOnUse">
<stop stop-color="#EEBA34"/>
<stop offset="0.197917" stop-color="#FFD465"/>
<stop offset="0.338542" stop-color="#FFC42C"/>
<stop offset="0.46875" stop-color="#FFD465"/>
<stop offset="0.723958" stop-color="#EEBA34"/>
<stop offset="0.958333" stop-color="#F8B638"/>
</linearGradient>
<linearGradient id="paint8_linear_464_98" x1="44.8348" y1="29.3549" x2="45.9959" y2="29.3636" gradientUnits="userSpaceOnUse">
<stop stop-color="#EEBA34"/>
<stop offset="0.197917" stop-color="#FFD465"/>
<stop offset="0.338542" stop-color="#FFC42C"/>
<stop offset="0.46875" stop-color="#FFD465"/>
<stop offset="0.723958" stop-color="#EEBA34"/>
<stop offset="0.958333" stop-color="#F8B638"/>
</linearGradient>
<linearGradient id="paint9_linear_464_98" x1="30.866" y1="35.2322" x2="32.0269" y2="35.2429" gradientUnits="userSpaceOnUse">
<stop stop-color="#EEBA34"/>
<stop offset="0.197917" stop-color="#FFD465"/>
<stop offset="0.338542" stop-color="#FFC42C"/>
<stop offset="0.46875" stop-color="#FFD465"/>
<stop offset="0.723958" stop-color="#EEBA34"/>
<stop offset="0.958333" stop-color="#F8B638"/>
</linearGradient>
<linearGradient id="paint10_linear_464_98" x1="4.40579" y1="58.0476" x2="11.225" y2="65.2917" gradientUnits="userSpaceOnUse">
<stop stop-color="#EEBA34"/>
<stop offset="0.197917" stop-color="#FFD465"/>
<stop offset="0.338542" stop-color="#FFC42C"/>
<stop offset="0.46875" stop-color="#FFD465"/>
<stop offset="0.723958" stop-color="#EEBA34"/>
<stop offset="0.958333" stop-color="#F8B638"/>
</linearGradient>
<linearGradient id="paint11_linear_464_98" x1="63.0035" y1="58.0476" x2="69.8227" y2="65.2918" gradientUnits="userSpaceOnUse">
<stop stop-color="#EEBA34"/>
<stop offset="0.197917" stop-color="#FFD465"/>
<stop offset="0.338542" stop-color="#FFC42C"/>
<stop offset="0.46875" stop-color="#FFD465"/>
<stop offset="0.723958" stop-color="#EEBA34"/>
<stop offset="0.958333" stop-color="#F8B638"/>
</linearGradient>
<linearGradient id="paint12_linear_464_98" x1="30.8058" y1="57.3566" x2="38.7648" y2="68.9907" gradientUnits="userSpaceOnUse">
<stop stop-color="#EEBA34"/>
<stop offset="0.197917" stop-color="#FFD465"/>
<stop offset="0.338542" stop-color="#FFC42C"/>
<stop offset="0.46875" stop-color="#FFD465"/>
<stop offset="0.723958" stop-color="#EEBA34"/>
<stop offset="0.958333" stop-color="#F8B638"/>
</linearGradient>
<linearGradient id="paint13_linear_464_98" x1="21.2453" y1="66.8364" x2="59.5461" y2="92.9158" gradientUnits="userSpaceOnUse">
<stop stop-color="#EEBA34"/>
<stop offset="0.197917" stop-color="#FFD465"/>
<stop offset="0.338542" stop-color="#FFC42C"/>
<stop offset="0.46875" stop-color="#FFD465"/>
<stop offset="0.723958" stop-color="#EEBA34"/>
<stop offset="0.958333" stop-color="#F8B638"/>
</linearGradient>
<clipPath id="clip0_464_98">
<rect width="78" height="85" fill="white"/>
</clipPath>
</defs>
</svg>
